<svg xmlns="http://www.w3.org/2000/svg" width="141.376" height="138" viewBox="0 0 141.376 138">
  <g id="undraw_no_data_re_kwbl" transform="translate(-0.001 -0.004)">
    <path id="Path_1" data-name="Path 1" d="M396.533,186.993H358.438a3.278,3.278,0,0,0-3.274,3.274v84.666l-.437.133-9.345,2.862a1.748,1.748,0,0,1-2.181-1.159l-27.8-90.8a1.747,1.747,0,0,1,1.159-2.181l14.4-4.41L372.713,166.6l14.4-4.41a1.744,1.744,0,0,1,2.181,1.157l7.105,23.209Z" transform="translate(-306.781 -155.955)" fill="#f2f2f2"/>
    <path id="Path_2" data-name="Path 2" d="M374.247,164.515l-8.564-27.972a3.71,3.71,0,0,0-4.634-2.462l-20.247,6.2-41.747,12.781-20.247,6.2a3.714,3.714,0,0,0-2.462,4.634l29.269,95.6a3.717,3.717,0,0,0,3.55,2.626,3.664,3.664,0,0,0,1.085-.164l13.879-4.248.437-.135v-.456l-.437.133-14.008,4.29a3.278,3.278,0,0,1-4.089-2.172l-29.267-95.6a3.27,3.27,0,0,1,2.172-4.089l20.247-6.2L340.93,140.7l20.247-6.2a3.271,3.271,0,0,1,4.089,2.172l8.524,27.846.135.437h.454Z" transform="translate(-276.182 -133.913)" fill="#3f3d56"/>
    <path id="Path_3" data-name="Path 3" d="M381.753,172.669a1.968,1.968,0,0,1-1.88-1.39l-2.812-9.184a1.964,1.964,0,0,1,1.3-2.454l38.407-11.758a1.967,1.967,0,0,1,2.454,1.3l2.812,9.184a1.967,1.967,0,0,1-1.3,2.454l-38.407,11.758A1.96,1.96,0,0,1,381.753,172.669Z" transform="translate(-354.971 -144.763)" fill="#cdab6a"/>
    <circle id="Ellipse_1" data-name="Ellipse 1" cx="4.366" cy="4.366" r="4.366" transform="translate(37.145 1.084)" fill="#cdab6a"/>
    <circle id="Ellipse_2" data-name="Ellipse 2" cx="2.765" cy="2.765" r="2.765" transform="translate(38.746 2.686)" fill="#fff"/>
    <path id="Path_4" data-name="Path 4" d="M607.957,386.208H534.173a1.858,1.858,0,0,1-1.855-1.855v-88.41a1.858,1.858,0,0,1,1.855-1.855h73.784a1.858,1.858,0,0,1,1.856,1.855v88.41A1.858,1.858,0,0,1,607.957,386.208Z" transform="translate(-476.404 -259.119)" fill="#e6e6e6"/>
    <path id="Path_5" data-name="Path 5" d="M545.48,274.087H499.529a3.716,3.716,0,0,0-3.711,3.711v89.021l.437-.133V277.8a3.278,3.278,0,0,1,3.274-3.274h46.087Zm40.057,0H499.529a3.716,3.716,0,0,0-3.711,3.711v99.979a3.716,3.716,0,0,0,3.711,3.711h86.009a3.716,3.716,0,0,0,3.711-3.711V277.8A3.716,3.716,0,0,0,585.538,274.087Zm3.274,103.69a3.278,3.278,0,0,1-3.274,3.274H499.529a3.278,3.278,0,0,1-3.274-3.274V277.8a3.278,3.278,0,0,1,3.274-3.274h86.009a3.278,3.278,0,0,1,3.274,3.274Z" transform="translate(-447.872 -243.485)" fill="#3f3d56"/>
    <path id="Path_6" data-name="Path 6" d="M650.949,269.621H610.783a1.967,1.967,0,0,1-1.965-1.965v-9.6a1.967,1.967,0,0,1,1.965-1.965h40.166a1.967,1.967,0,0,1,1.965,1.965v9.6a1.967,1.967,0,0,1-1.965,1.965Z" transform="translate(-536.204 -229.414)" fill="#cdab6a"/>
    <circle id="Ellipse_3" data-name="Ellipse 3" cx="4.366" cy="4.366" r="4.366" transform="translate(90.296 18.596)" fill="#cdab6a"/>
    <circle id="Ellipse_4" data-name="Ellipse 4" cx="2.659" cy="2.659" r="2.659" transform="translate(92.002 20.303)" fill="#fff"/>
  </g>
</svg>
